<?xml version="1.0" encoding="UTF-8"?>
<svg width="500px" height="500px" viewBox="0 0 500 500" version="1.1" xmlns="http://www.w3.org/2000/svg" xmlns:xlink="http://www.w3.org/1999/xlink">
    <!-- Generator: Sketch 62 (91390) - https://sketch.com -->
    <title>Group</title>
    <desc>Created with Sketch.</desc>
    <g id="Page-1" stroke="none" stroke-width="1" fill="none" fill-rule="evenodd">
        <g id="Group">
            <circle id="Oval" fill="#F6DA29" cx="250" cy="250" r="250"></circle>
            <path d="M139.72,400 L255.66,500.002674 C313.717009,497.356737 365.511719,477.83256 411.044128,441.430145 C456.576538,405.02773 485.441666,352.698667 497.639511,284.442955 L353.711914,118.069733 L139.72,92 L139.72,400 Z" id="Path-2" fill-opacity="0.25" fill="#000000"></path>
            <path d="M280.08,400 C296.213333,400 310.953333,398.093333 324.3,394.28 C337.646667,390.466667 349.306667,384.6 359.28,376.68 C369.253333,368.76 376.88,359.006667 382.16,347.42 C387.44,335.833333 390.08,322.266667 390.08,306.72 C390.08,293.226667 387.293333,281.126667 381.72,270.42 C376.146667,259.713333 368.3,250.693333 358.18,243.36 C351.74,238.693333 344.557576,234.917576 336.632727,232.032727 L336.211,231.882 L336.608649,231.703697 C346.407891,227.257875 354.344293,220.914064 360.417856,212.672265 L360.82,212.12 C369.473333,200.093333 373.8,185.28 373.8,167.68 C373.8,151.84 370.06,138.273333 362.58,126.98 C355.1,115.686667 344.026667,107.033333 329.36,101.02 C314.693333,95.0066667 296.8,92 275.68,92 L275.68,92 L139.72,92 L139.72,400 L280.08,400 Z M265.12,215.64 L210.12,215.64 L210.12,154.48 L262.48,154.48 C275.386667,154.48 285.066667,157.193333 291.52,162.62 C297.973333,168.046667 301.2,175.453333 301.2,184.84 C301.2,191.293333 299.806667,196.793333 297.02,201.34 C294.233333,205.886667 290.126667,209.406667 284.7,211.9 C279.273333,214.393333 272.746667,215.64 265.12,215.64 L265.12,215.64 Z M277.44,337.52 L210.12,337.52 L210.12,271.52 L275.24,271.52 C283.746667,271.52 291.08,272.766667 297.24,275.26 C303.4,277.753333 308.166667,281.346667 311.54,286.04 C314.913333,290.733333 316.6,296.453333 316.6,303.2 C316.6,310.533333 314.986667,316.766667 311.76,321.9 C308.533333,327.033333 304.06,330.92 298.34,333.56 C292.62,336.2 285.653333,337.52 277.44,337.52 L277.44,337.52 Z" id="B" fill="#FFFFFF" fill-rule="nonzero"></path>
        </g>
    </g>
</svg>