<?xml version="1.0" encoding="UTF-8"?>
<svg width="2481px" height="500px" viewBox="0 0 2481 500" version="1.1" xmlns="http://www.w3.org/2000/svg" xmlns:xlink="http://www.w3.org/1999/xlink">
    <!-- Generator: Sketch 62 (91390) - https://sketch.com -->
    <title>Group 2</title>
    <desc>Created with Sketch.</desc>
    <g id="Page-1" stroke="none" stroke-width="1" fill="none" fill-rule="evenodd">
        <g id="Group-2">
            <g id="Group">
                <circle id="Oval" fill="#F6DA29" cx="250" cy="250" r="250"></circle>
                <path d="M139.72,400 L255.66,500.002674 C313.717009,497.356737 365.511719,477.83256 411.044128,441.430145 C456.576538,405.02773 485.441666,352.698667 497.639511,284.442955 L353.711914,118.069733 L139.72,92 L139.72,400 Z" id="Path-2" fill-opacity="0.25" fill="#000000"></path>
                <path d="M280.08,400 C296.213333,400 310.953333,398.093333 324.3,394.28 C337.646667,390.466667 349.306667,384.6 359.28,376.68 C369.253333,368.76 376.88,359.006667 382.16,347.42 C387.44,335.833333 390.08,322.266667 390.08,306.72 C390.08,293.226667 387.293333,281.126667 381.72,270.42 C376.146667,259.713333 368.3,250.693333 358.18,243.36 C351.74,238.693333 344.557576,234.917576 336.632727,232.032727 L336.211,231.882 L336.608649,231.703697 C346.407891,227.257875 354.344293,220.914064 360.417856,212.672265 L360.82,212.12 C369.473333,200.093333 373.8,185.28 373.8,167.68 C373.8,151.84 370.06,138.273333 362.58,126.98 C355.1,115.686667 344.026667,107.033333 329.36,101.02 C314.693333,95.0066667 296.8,92 275.68,92 L275.68,92 L139.72,92 L139.72,400 L280.08,400 Z M265.12,215.64 L210.12,215.64 L210.12,154.48 L262.48,154.48 C275.386667,154.48 285.066667,157.193333 291.52,162.62 C297.973333,168.046667 301.2,175.453333 301.2,184.84 C301.2,191.293333 299.806667,196.793333 297.02,201.34 C294.233333,205.886667 290.126667,209.406667 284.7,211.9 C279.273333,214.393333 272.746667,215.64 265.12,215.64 L265.12,215.64 Z M277.44,337.52 L210.12,337.52 L210.12,271.52 L275.24,271.52 C283.746667,271.52 291.08,272.766667 297.24,275.26 C303.4,277.753333 308.166667,281.346667 311.54,286.04 C314.913333,290.733333 316.6,296.453333 316.6,303.2 C316.6,310.533333 314.986667,316.766667 311.76,321.9 C308.533333,327.033333 304.06,330.92 298.34,333.56 C292.62,336.2 285.653333,337.52 277.44,337.52 L277.44,337.52 Z" id="B" fill="#FFFFFF" fill-rule="nonzero"></path>
            </g>
            <path d="M696.704,352 C706.677333,352 715.789333,350.821333 724.04,348.464 C732.290667,346.106667 739.498667,342.48 745.664,337.584 C751.829333,332.688 756.544,326.658667 759.808,319.496 C763.072,312.333333 764.704,303.946667 764.704,294.336 C764.704,285.994667 762.981333,278.514667 759.536,271.896 C756.090667,265.277333 751.24,259.701333 744.984,255.168 C740.947871,252.243269 736.440011,249.884615 731.46042,248.092037 L731.402,248.073 L731.85048,247.87024 C737.775365,245.145163 742.589258,241.28813 746.292157,236.299142 L746.616,235.856 C751.965333,228.421333 754.64,219.264 754.64,208.384 C754.64,198.592 752.328,190.205333 747.704,183.224 C743.08,176.242667 736.234667,170.893333 727.168,167.176 C718.101333,163.458667 707.04,161.6 693.984,161.6 L693.984,161.6 L609.936,161.6 L609.936,352 L696.704,352 Z M687.456,238.032 L653.456,238.032 L653.456,200.224 L685.824,200.224 C693.802667,200.224 699.786667,201.901333 703.776,205.256 C707.765333,208.610667 709.76,213.189333 709.76,218.992 C709.76,222.981333 708.898667,226.381333 707.176,229.192 C705.453333,232.002667 702.914667,234.178667 699.56,235.72 C696.205333,237.261333 692.170667,238.032 687.456,238.032 L687.456,238.032 Z M695.072,313.376 L653.456,313.376 L653.456,272.576 L693.712,272.576 C698.970667,272.576 703.504,273.346667 707.312,274.888 C711.12,276.429333 714.066667,278.650667 716.152,281.552 C718.237333,284.453333 719.28,287.989333 719.28,292.16 C719.28,296.693333 718.282667,300.546667 716.288,303.72 C714.293333,306.893333 711.528,309.296 707.992,310.928 C704.456,312.56 700.149333,313.376 695.072,313.376 L695.072,313.376 Z M838.416,354.992 C846.394667,354.992 853.92,353.405333 860.992,350.232 C868.064,347.058667 874.138667,342.797333 879.216,337.448 C880.400711,336.199822 881.506441,334.909686 882.533191,333.577591 L882.647,333.427 L883.84,352 L924.912,352 L924.912,207.568 L881.12,207.568 L881.12,293.792 C881.12,297.418667 880.485333,300.728 879.216,303.72 C877.946667,306.712 876.178667,309.341333 873.912,311.608 C871.645333,313.874667 868.925333,315.642667 865.752,316.912 C862.578667,318.181333 859.088,318.816 855.28,318.816 C850.202667,318.816 845.850667,317.682667 842.224,315.416 C838.597333,313.149333 835.877333,309.930667 834.064,305.76 C832.250667,301.589333 831.344,296.602667 831.344,290.8 L831.344,290.8 L831.344,207.568 L787.552,207.568 L787.552,296.784 C787.552,308.933333 789.592,319.36 793.672,328.064 C797.752,336.768 803.554667,343.432 811.08,348.056 C818.605333,352.68 827.717333,354.992 838.416,354.992 Z M981.216,179.008 C989.194667,179.008 995.496,176.922667 1000.12,172.752 C1004.744,168.581333 1007.056,163.141333 1007.056,156.432 C1007.056,149.36 1004.78933,143.874667 1000.256,139.976 C995.722667,136.077333 989.376,134.128 981.216,134.128 C973.237333,134.128 966.890667,136.213333 962.176,140.384 C957.461333,144.554667 955.104,149.904 955.104,156.432 C955.104,163.685333 957.416,169.261333 962.04,173.16 C966.664,177.058667 973.056,179.008 981.216,179.008 Z M1002.976,352 L1002.976,207.568 L959.456,207.568 L959.456,352 L1002.976,352 Z M1080.768,352 L1080.768,150.72 L1037.248,150.72 L1037.248,352 L1080.768,352 Z M1164.816,354.992 C1171.52533,354.992 1177.91733,354.04 1183.992,352.136 C1190.06667,350.232 1195.46133,347.693333 1200.176,344.52 C1203.66075,342.174493 1206.67495,339.556557 1209.21859,336.666193 L1209.61,336.214 L1210.784,352 L1251.312,352 L1251.312,150.72 L1207.52,150.72 L1207.52,221.681 L1207.37089,221.527924 C1205.4818,219.631294 1203.38533,217.848726 1201.08147,216.180219 L1200.448,215.728 C1195.552,212.282667 1190.112,209.562667 1184.128,207.568 C1178.144,205.573333 1171.888,204.576 1165.36,204.576 C1152.66667,204.576 1141.424,207.84 1131.632,214.368 C1121.84,220.896 1114.13333,229.826667 1108.512,241.16 C1102.89067,252.493333 1100.08,265.413333 1100.08,279.92 C1100.08,294.426667 1102.89067,307.346667 1108.512,318.68 C1114.13333,330.013333 1121.79467,338.898667 1131.496,345.336 C1141.19733,351.773333 1152.304,354.992 1164.816,354.992 Z M1175.968,318.816 C1169.25867,318.816 1163.50133,317.184 1158.696,313.92 C1153.89067,310.656 1150.128,306.122667 1147.408,300.32 C1144.688,294.517333 1143.328,287.717333 1143.328,279.92 C1143.328,271.941333 1144.688,265.050667 1147.408,259.248 C1150.128,253.445333 1153.89067,248.912 1158.696,245.648 C1163.50133,242.384 1169.25867,240.752 1175.968,240.752 C1182.67733,240.752 1188.48,242.384 1193.376,245.648 C1198.272,248.912 1202.03467,253.445333 1204.664,259.248 C1207.29333,265.050667 1208.608,271.941333 1208.608,279.92 C1208.608,287.717333 1207.29333,294.517333 1204.664,300.32 C1202.03467,306.122667 1198.272,310.656 1193.376,313.92 C1188.48,317.184 1182.67733,318.816 1175.968,318.816 Z M1385.68,179.008 C1393.65867,179.008 1399.96,176.922667 1404.584,172.752 C1409.208,168.581333 1411.52,163.141333 1411.52,156.432 C1411.52,149.36 1409.25333,143.874667 1404.72,139.976 C1400.18667,136.077333 1393.84,134.128 1385.68,134.128 C1377.70133,134.128 1371.35467,136.213333 1366.64,140.384 C1361.92533,144.554667 1359.568,149.904 1359.568,156.432 C1359.568,163.685333 1361.88,169.261333 1366.504,173.16 C1371.128,177.058667 1377.52,179.008 1385.68,179.008 Z M1407.44,352 L1407.44,207.568 L1363.92,207.568 L1363.92,352 L1407.44,352 Z M1484.96,352 L1484.96,265.504 C1484.96,262.058667 1485.64,258.885333 1487,255.984 C1488.36,253.082667 1490.21867,250.498667 1492.576,248.232 C1494.93333,245.965333 1497.744,244.242667 1501.008,243.064 C1504.272,241.885333 1507.808,241.296 1511.616,241.296 C1516.512,241.114667 1520.63733,241.976 1523.992,243.88 C1527.34667,245.784 1529.84,248.64 1531.472,252.448 C1533.104,256.256 1533.92,261.061333 1533.92,266.864 L1533.92,266.864 L1533.92,352 L1577.712,352 L1577.712,263.328 C1577.712,250.634667 1575.808,239.890667 1572,231.096 C1568.192,222.301333 1562.57067,215.682667 1555.136,211.24 C1547.70133,206.797333 1538.544,204.576 1527.664,204.576 C1519.68533,204.576 1512.06933,206.208 1504.816,209.472 C1497.56267,212.736 1491.352,217.042667 1486.184,222.392 C1485.35045,223.254796 1484.55818,224.132923 1483.80718,225.026381 L1483.604,225.272 L1482.784,207.568 L1441.44,207.568 L1441.44,352 L1441.44,352 L1484.96,352 Z M1731.392,411.84 L1731.392,337.312 L1731.90366,337.83424 C1736.71585,342.674631 1742.55478,346.567253 1749.42046,349.512107 L1750.16,349.824 C1757.59467,352.906667 1765.392,354.448 1773.552,354.448 C1786.064,354.448 1797.17067,351.229333 1806.872,344.792 C1816.57333,338.354667 1824.18933,329.514667 1829.72,318.272 C1835.25067,307.029333 1838.016,294.154667 1838.016,279.648 C1838.016,264.96 1835.25067,252.04 1829.72,240.888 C1824.18933,229.736 1816.61867,220.941333 1807.008,214.504 C1797.39733,208.066667 1786.42667,204.848 1774.096,204.848 C1765.75467,204.848 1757.82133,206.344 1750.296,209.336 C1742.77067,212.328 1736.56,216.272 1731.664,221.168 C1731.07055,221.761455 1730.50373,222.362902 1729.96356,222.972342 L1729.734,223.235 L1728.944,207.568 L1687.6,207.568 L1687.6,411.84 L1731.392,411.84 Z M1762.944,317.728 C1756.23467,317.728 1750.432,316.141333 1745.536,312.968 C1740.64,309.794667 1736.832,305.397333 1734.112,299.776 C1731.392,294.154667 1730.032,287.445333 1730.032,279.648 C1730.032,272.032 1731.392,265.322667 1734.112,259.52 C1736.832,253.717333 1740.64,249.274667 1745.536,246.192 C1750.432,243.109333 1756.23467,241.568 1762.944,241.568 C1769.65333,241.568 1775.41067,243.154667 1780.216,246.328 C1785.02133,249.501333 1788.784,253.944 1791.504,259.656 C1794.224,265.368 1795.584,272.032 1795.584,279.648 C1795.584,287.445333 1794.224,294.154667 1791.504,299.776 C1788.784,305.397333 1784.976,309.794667 1780.08,312.968 C1775.184,316.141333 1769.472,317.728 1762.944,317.728 Z M1909.28,354.992 C1917.25867,354.992 1924.784,353.405333 1931.856,350.232 C1938.928,347.058667 1945.00267,342.797333 1950.08,337.448 C1951.26471,336.199822 1952.37044,334.909686 1953.39719,333.577591 L1953.511,333.427 L1954.704,352 L1995.776,352 L1995.776,207.568 L1951.984,207.568 L1951.984,293.792 C1951.984,297.418667 1951.34933,300.728 1950.08,303.72 C1948.81067,306.712 1947.04267,309.341333 1944.776,311.608 C1942.50933,313.874667 1939.78933,315.642667 1936.616,316.912 C1933.44267,318.181333 1929.952,318.816 1926.144,318.816 C1921.06667,318.816 1916.71467,317.682667 1913.088,315.416 C1909.46133,313.149333 1906.74133,309.930667 1904.928,305.76 C1903.11467,301.589333 1902.208,296.602667 1902.208,290.8 L1902.208,290.8 L1902.208,207.568 L1858.416,207.568 L1858.416,296.784 C1858.416,308.933333 1860.456,319.36 1864.536,328.064 C1868.616,336.768 1874.41867,343.432 1881.944,348.056 C1889.46933,352.68 1898.58133,354.992 1909.28,354.992 Z M2114.64,354.992 C2126.78933,354.992 2137.66933,351.773333 2147.28,345.336 C2156.89067,338.898667 2164.46133,330.013333 2169.992,318.68 C2175.52267,307.346667 2178.288,294.336 2178.288,279.648 C2178.288,265.141333 2175.47733,252.221333 2169.856,240.888 C2164.23467,229.554667 2156.57333,220.669333 2146.872,214.232 C2137.17067,207.794667 2126.064,204.576 2113.552,204.576 C2107.568,204.576 2101.76533,205.482667 2096.144,207.296 C2090.52267,209.109333 2085.35467,211.602667 2080.64,214.776 C2077.42545,216.939636 2074.59025,219.314017 2072.13438,221.89914 L2071.664,222.402 L2071.664,150.72 L2027.872,150.72 L2027.872,351.728 L2068.4,351.728 L2069.525,336.354 C2072.21097,339.370606 2075.3819,342.087455 2079.03779,344.504545 L2079.688,344.928 C2084.49333,348.010667 2089.888,350.458667 2095.872,352.272 C2101.856,354.085333 2108.112,354.992 2114.64,354.992 Z M2103.216,318.272 C2096.50667,318.272 2090.704,316.64 2085.808,313.376 C2080.912,310.112 2077.104,305.624 2074.384,299.912 C2071.664,294.2 2070.304,287.445333 2070.304,279.648 C2070.304,272.032 2071.664,265.322667 2074.384,259.52 C2077.104,253.717333 2080.912,249.274667 2085.808,246.192 C2090.704,243.109333 2096.50667,241.568 2103.216,241.568 C2109.744,241.568 2115.456,243.109333 2120.352,246.192 C2125.248,249.274667 2129.01067,253.717333 2131.64,259.52 C2134.26933,265.322667 2135.584,272.032 2135.584,279.648 C2135.584,287.445333 2134.26933,294.2 2131.64,299.912 C2129.01067,305.624 2125.248,310.112 2120.352,313.376 C2115.456,316.64 2109.744,318.272 2103.216,318.272 Z M2243.84,352 L2243.84,150.72 L2200.32,150.72 L2200.32,352 L2243.84,352 Z M2300.144,179.008 C2308.12267,179.008 2314.424,176.922667 2319.048,172.752 C2323.672,168.581333 2325.984,163.141333 2325.984,156.432 C2325.984,149.36 2323.71733,143.874667 2319.184,139.976 C2314.65067,136.077333 2308.304,134.128 2300.144,134.128 C2292.16533,134.128 2285.81867,136.213333 2281.104,140.384 C2276.38933,144.554667 2274.032,149.904 2274.032,156.432 C2274.032,163.685333 2276.344,169.261333 2280.968,173.16 C2285.592,177.058667 2291.984,179.008 2300.144,179.008 Z M2321.904,352 L2321.904,207.568 L2278.384,207.568 L2278.384,352 L2321.904,352 Z M2419.28,354.72 C2431.792,354.72 2443.53333,352.453333 2454.504,347.92 C2465.47467,343.386667 2474.04267,337.221333 2480.208,329.424 L2480.208,329.424 L2456.816,300.864 C2453.91467,304.309333 2450.78667,307.210667 2447.432,309.568 C2444.07733,311.925333 2440.40533,313.693333 2436.416,314.872 C2432.42667,316.050667 2428.07467,316.64 2423.36,316.64 C2416.65067,316.64 2410.66667,315.008 2405.408,311.744 C2400.14933,308.48 2396.024,304.037333 2393.032,298.416 C2390.04,292.794667 2388.544,286.538667 2388.544,279.648 C2388.544,272.394667 2389.99467,265.957333 2392.896,260.336 C2395.79733,254.714667 2399.87733,250.317333 2405.136,247.144 C2410.39467,243.970667 2416.46933,242.384 2423.36,242.384 C2427.89333,242.384 2432.24533,243.109333 2436.416,244.56 C2440.58667,246.010667 2444.39467,248.005333 2447.84,250.544 C2451.28533,253.082667 2454.27733,255.802667 2456.816,258.704 L2456.816,258.704 L2480.48,230.416 C2474.13333,222.256 2465.56533,215.909333 2454.776,211.376 C2443.98667,206.842667 2432.15467,204.576 2419.28,204.576 C2405.31733,204.576 2392.80533,207.84 2381.744,214.368 C2370.68267,220.896 2361.93333,229.826667 2355.496,241.16 C2349.05867,252.493333 2345.84,265.322667 2345.84,279.648 C2345.84,293.973333 2349.05867,306.802667 2355.496,318.136 C2361.93333,329.469333 2370.68267,338.4 2381.744,344.928 C2392.80533,351.456 2405.31733,354.72 2419.28,354.72 Z" id="Buildinpublic" fill="#FFFFFF" fill-rule="nonzero"></path>
        </g>
    </g>
</svg>